# xmcd
#
# Track frame offsets: 
#        150
#        10630
#        20045
#        32455
#        44825
#        54480
#        66422
#        72430
#        84040
#        94400
#        104947
#        114262
#        123097
#        132885
#        142962
#        153415
#        163552
#        175167
#        185742
#        195522
#        209020
#        220645
#        230947
#        240240
#        249567
#        260892
#        269595
#        281755
#        290672
#        300190
#        311247
#        321697
#        335192
#
# Disc length: 4600 seconds
#
# Revision: 0
# Processed by: cddbd v1.5.2PL0 Copyright (c) Steve Scherf et al.
# Submitted via: ExactAudioCopy v0.95b4
#
DISCID=0211f621
DTITLE=Benny Barnes - Poor Man's Riches (The Complete 1950s Recordings
DTITLE=)
DYEAR=2007
DGENRE=Country
TTITLE0=You Gotta Pay
TTITLE1=Poor Man's Riches
TTITLE2=King For A Day
TTITLE3=No Fault Of Mine
TTITLE4=Train Of Love
TTITLE5=Your Old Standby
TTITLE6=My Babe (demo)
TTITLE7=Last Message (unissued)
TTITLE8=A Nickel's Worth Of Dreams
TTITLE9=I Walk The Line
TTITLE10=Tangled Mind
TTITLE11=No Fault Of Mine (demo)
TTITLE12=Penalty
TTITLE13=Heads You Win (Tails I Lose)
TTITLE14=Mine, All Mine
TTITLE15=Conscience I'm Guilty
TTITLE16=Happy Little Bluebird
TTITLE17=Beggar To A King
TTITLE18=I Got It Made (unissued)
TTITLE19=Once Again
TTITLE20=Those Who Know
TTITLE21=Poor Old Me
TTITLE22=My Arms Are A House
TTITLE23=Lonely Street
TTITLE24=Moon Over My Shoulder
TTITLE25=There You Go
TTITLE26=Fastest Gun Alive
TTITLE27=Gold Records In The Snow
TTITLE28=Give My Love To Rose
TTITLE29=Stolen Moments
TTITLE30=These Hands
TTITLE31=Take The World (But Give Me Jesus)
TTITLE32=Talking To The Lord
EXTD=
EXTT0=
EXTT1=
EXTT2=
EXTT3=
EXTT4=
EXTT5=
EXTT6=
EXTT7=
EXTT8=
EXTT9=
EXTT10=
EXTT11=
EXTT12=
EXTT13=
EXTT14=
EXTT15=
EXTT16=
EXTT17=
EXTT18=
EXTT19=
EXTT20=
EXTT21=
EXTT22=
EXTT23=
EXTT24=
EXTT25=
EXTT26=
EXTT27=
EXTT28=
EXTT29=
EXTT30=
EXTT31=
EXTT32=
PLAYORDER=
